<svg xmlns="http://www.w3.org/2000/svg" width="46" height="46" viewBox="0 0 46 46"><defs><style>.a{fill:#d4af47;}</style></defs><path class="a" d="M23,8A23,23,0,1,0,46,31,23,23,0,0,0,23,8Zm0,43.032A20.032,20.032,0,1,1,43.032,31,20.055,20.055,0,0,1,23,51.032Zm0-14.1a13.845,13.845,0,0,0-10.647,4.99,1.481,1.481,0,1,0,2.272,1.9,10.9,10.9,0,0,1,16.731,0,1.481,1.481,0,0,0,2.272-1.9A13.779,13.779,0,0,0,23,36.935Zm-7.419-7.419a2.968,2.968,0,1,0-2.968-2.968A2.965,2.965,0,0,0,15.581,29.516Zm14.839,0a2.968,2.968,0,1,0-2.968-2.968A2.965,2.965,0,0,0,30.419,29.516Z" transform="translate(0 -8)"/></svg>