<svg xmlns="http://www.w3.org/2000/svg" width="46" height="46" viewBox="0 0 46 46"><defs><style>.a{fill:#69e793;}</style></defs><path class="a" d="M23,8A23,23,0,1,0,46,31,23,23,0,0,0,23,8Zm0,43.032A20.032,20.032,0,1,1,43.032,31,20.055,20.055,0,0,1,23,51.032ZM15.581,29.516a2.968,2.968,0,1,0-2.968-2.968A2.965,2.965,0,0,0,15.581,29.516Zm14.839-5.935a2.968,2.968,0,1,0,2.968,2.968A2.965,2.965,0,0,0,30.419,23.581ZM31.9,38.419H14.1a1.484,1.484,0,1,0,0,2.968H31.9a1.484,1.484,0,1,0,0-2.968Z" transform="translate(0 -8)"/></svg>