<svg xmlns="http://www.w3.org/2000/svg" width="46" height="46" viewBox="0 0 46 46"><defs><style>.a{fill:#d44747;}</style></defs><path class="a" d="M23,8A23,23,0,1,0,46,31,23,23,0,0,0,23,8Zm0,43.032A20.032,20.032,0,1,1,43.032,31,20.055,20.055,0,0,1,23,51.032ZM33.554,21.142l-7.419,4.452a1.112,1.112,0,0,0,0,1.91l7.419,4.452a1.115,1.115,0,0,0,1.428-1.669l-3.116-3.738,3.116-3.738a1.116,1.116,0,0,0-1.428-1.669ZM12.446,31.955,19.865,27.5a1.112,1.112,0,0,0,0-1.91l-7.419-4.452a1.115,1.115,0,0,0-1.428,1.669l3.116,3.737-3.116,3.738A1.115,1.115,0,0,0,12.446,31.955ZM23,32.484c-4.813,0-10.693,4.062-11.426,9.9A2.021,2.021,0,0,0,12,43.947a1.075,1.075,0,0,0,1.224.334,26.338,26.338,0,0,1,9.784-1.614,26.338,26.338,0,0,1,9.784,1.614,1.059,1.059,0,0,0,1.224-.334,2.1,2.1,0,0,0,.427-1.567C33.693,36.546,27.813,32.484,23,32.484Zm0,7.206a34.3,34.3,0,0,0-7.818.844A9.366,9.366,0,0,1,23,35.452a9.366,9.366,0,0,1,7.818,5.082A34.237,34.237,0,0,0,23,39.69Z" transform="translate(0 -8)"/></svg>