<svg xmlns="http://www.w3.org/2000/svg" width="18" height="18" viewBox="0 0 18 18"><defs><style>.a{fill:#4aae20;}</style></defs><path class="a" d="M15.3,34.616A8.923,8.923,0,0,0,1.266,45.379L0,50l4.729-1.242a8.893,8.893,0,0,0,4.263,1.085H9A8.863,8.863,0,0,0,15.3,34.616ZM9,48.341a7.4,7.4,0,0,1-3.777-1.033l-.269-.161-2.8.735.747-2.736-.177-.281a7.428,7.428,0,1,1,13.777-3.942A7.5,7.5,0,0,1,9,48.341Zm4.066-5.553c-.221-.112-1.318-.651-1.523-.723s-.354-.112-.5.112-.575.723-.707.876-.261.169-.482.056a6.067,6.067,0,0,1-3.033-2.652c-.229-.394.229-.366.655-1.217a.413.413,0,0,0-.02-.39c-.056-.112-.5-1.209-.687-1.655s-.366-.374-.5-.382-.277-.008-.426-.008a.826.826,0,0,0-.595.277,2.5,2.5,0,0,0-.779,1.86,4.366,4.366,0,0,0,.908,2.306,9.959,9.959,0,0,0,3.809,3.367,4.361,4.361,0,0,0,2.676.558,2.283,2.283,0,0,0,1.5-1.061,1.864,1.864,0,0,0,.129-1.061C13.432,42.953,13.283,42.9,13.062,42.788Z" transform="translate(0 -32)"/></svg>